<svg xmlns="http://www.w3.org/2000/svg" viewBox="0 0 500 100">
  <path d="M173.56934 67.639648v-17.62207h-14.50196v-7.294922h23.29102v28.168946q-5.1416 3.64746-11.33789 5.537109-6.19629 1.845703-13.22754 1.845703-15.38086 0-24.08203-8.964844-8.65723-9.008789-8.65723-25.048828 0-16.083984 8.65723-25.048828 8.70117-9.008789 24.08203-9.008789 6.41601 0 12.17285 1.582031 5.80078 1.582032 10.67871 4.658203v9.448243q-4.92187-4.174805-10.45898-6.28418t-11.64551-2.109375q-12.04102 0-18.10547 6.723633-6.02051 6.723632-6.02051 20.039062 0 13.271485 6.02051 19.995117 6.06445 6.723633 18.10547 6.723633 4.70215 0 8.39355-.791015 3.69141-.834961 6.63575-2.548829zm23.8623-10.063476V27.78125h8.08594v29.487305q0 6.987304 2.72461 10.502929 2.72461 3.47168 8.17383 3.47168 6.54785 0 10.32714-4.174805 3.82325-4.174804 3.82325-11.381836V27.78125h8.08593V77h-8.08593v-7.558594q-2.94434 4.482422-6.85547 6.679688-3.86719 2.15332-9.00879 2.15332-8.48145 0-12.87598-5.273437-4.39453-5.273438-4.39453-15.424805zm20.34668-30.981445zm37.61719-17.9736332h8.08594V77h-8.08594zm24.96094 0h8.08593V77h-8.08593zM299.5166 27.78125h8.56934l15.38086 41.308594 15.38086-41.308594h8.56933L328.95996 77h-10.98633zm101.16211 22.587891v3.955078h-37.17773q.52734 8.349609 5.00976 12.74414 4.52637 4.350586 12.56836 4.350586 4.6582 0 9.00879-1.142578 4.39453-1.142578 8.70117-3.427734v7.646484q-4.35058 1.845703-8.9209 2.8125-4.57031.966797-9.27246.966797-11.77734 0-18.67675-6.855469-6.85547-6.855468-6.85547-18.544922 0-12.084961 6.5039-19.160156 6.54785-7.11914 17.62207-7.11914 9.93164 0 15.68848 6.416015 5.80078 6.37207 5.80078 17.358399zm-8.08594-2.373047q-.0879-6.635742-3.73535-10.590821-3.60351-3.955078-9.58008-3.955078-6.76757 0-10.85449 3.823242-4.04297 3.823243-4.6582 10.766602zM413.9502 27.78125h8.08593V77h-8.08593zm0-19.1601562h8.08593V18.860352h-8.08593zm57.34863 43.1982422q0-8.789063-3.64746-13.623047-3.60352-4.833984-10.15137-4.833984-6.50391 0-10.15137 4.833984-3.60351 4.833984-3.60351 13.623047 0 8.745117 3.60351 13.579101 3.64746 4.833985 10.15137 4.833985 6.54785 0 10.15137-4.833985 3.64746-4.833984 3.64746-13.579101zm8.08594 19.072266q0 12.568359-5.58106 18.676757-5.58105 6.152344-17.09473 6.152344-4.26269 0-8.04199-.65918-3.77929-.615234-7.33887-1.933593v-7.866211q3.55958 1.933593 7.03125 2.856445 3.47168.922852 7.0752.922852 7.9541 0 11.90918-4.174805 3.95508-4.130859 3.95508-12.524414v-3.999024q-2.50488 4.350586-6.41602 6.503907Q460.97168 77 455.52246 77q-9.05273 0-14.58984-6.899414t-5.53711-18.28125q0-11.425781 5.53711-18.325195t14.58984-6.899414q5.44922 0 9.36035 2.15332 3.91114 2.15332 6.41602 6.503906V27.78125h8.08594z" aria-label="Gullveig" font-weight="500" font-size="90" font-family="Muli" fill="#e4e7ea" shape-rendering="geometricPrecision"/>
  <path shape-rendering="geometricPrecision" fill="#BF616A" d="M5 13.106138h91.390343v13.2H5z"/>
  <path shape-rendering="geometricPrecision" fill="#A3BE8C" d="M5 38.106138h91.390343v13.2H5z"/>
  <path shape-rendering="geometricPrecision" fill="#36A2EB" d="M5 64.106138h91.390343v13.2H5z"/>
</svg>
