<?xml version="1.0" encoding="UTF-8" standalone="no"?>
<!-- Created with Inkscape (http://www.inkscape.org/) -->

<svg
   xmlns:dc="http://purl.org/dc/elements/1.1/"
   xmlns:cc="http://creativecommons.org/ns#"
   xmlns:rdf="http://www.w3.org/1999/02/22-rdf-syntax-ns#"
   xmlns:svg="http://www.w3.org/2000/svg"
   xmlns="http://www.w3.org/2000/svg"
   xmlns:sodipodi="http://sodipodi.sourceforge.net/DTD/sodipodi-0.dtd"
   xmlns:inkscape="http://www.inkscape.org/namespaces/inkscape"
   width="150"
   height="150"
   viewBox="0 0 150 150"
   id="svg2"
   version="1.1"
   inkscape:version="0.91 r13725"
   sodipodi:docname="quadrupole.svg">
  <defs
     id="defs4" />
  <sodipodi:namedview
     id="base"
     pagecolor="#ffffff"
     bordercolor="#666666"
     borderopacity="1.0"
     inkscape:pageopacity="0.0"
     inkscape:pageshadow="2"
     inkscape:zoom="3.959798"
     inkscape:cx="100.73938"
     inkscape:cy="73.845765"
     inkscape:document-units="px"
     inkscape:current-layer="layer1"
     showgrid="true"
     units="px"
     inkscape:window-width="1920"
     inkscape:window-height="1056"
     inkscape:window-x="0"
     inkscape:window-y="24"
     inkscape:window-maximized="1">
    <inkscape:grid
       type="xygrid"
       id="grid4136" />
  </sodipodi:namedview>
  <metadata
     id="metadata7">
    <rdf:RDF>
      <cc:Work
         rdf:about="">
        <dc:format>image/svg+xml</dc:format>
        <dc:type
           rdf:resource="http://purl.org/dc/dcmitype/StillImage" />
        <dc:title></dc:title>
      </cc:Work>
    </rdf:RDF>
  </metadata>
  <g
     inkscape:label="Layer 1"
     inkscape:groupmode="layer"
     id="layer1"
     transform="translate(0,-902.36216)">
    <path
       style="fill:#0000a0;fill-opacity:1;fill-rule:evenodd;stroke:#000064;stroke-width:1px;stroke-linecap:butt;stroke-linejoin:miter;stroke-opacity:1"
       d="m 10.178571,967.54073 c 0,0 32.980481,-0.35855 43.593731,-10.93183 C 64.511296,945.91035 65,912.54073 65,912.54073 L 44.864757,912.667 c 0,0 1.486538,23.63876 -6.092455,30.90619 -6.95489,6.66899 -28.570752,4.39602 -28.570752,4.39602 z"
       id="path4161"
       inkscape:connector-curvature="0"
       sodipodi:nodetypes="caccacc" />
    <path
       style="fill:#0000a0;fill-opacity:1;fill-rule:evenodd;stroke:#000064;stroke-width:1px;stroke-linecap:butt;stroke-linejoin:miter;stroke-opacity:1"
       d="m 139.64969,967.7193 c 0,0 -32.98048,-0.35855 -43.593735,-10.93183 C 85.316961,946.08892 84.828257,912.7193 84.828257,912.7193 l 20.135243,0.12627 c 0,0 -1.48654,23.63876 6.09246,30.90619 6.95489,6.66899 28.57075,4.39602 28.57075,4.39602 z"
       id="path4161-0"
       inkscape:connector-curvature="0"
       sodipodi:nodetypes="caccacc" />
    <path
       style="fill:#0000a0;fill-opacity:1;fill-rule:evenodd;stroke:#000064;stroke-width:1px;stroke-linecap:butt;stroke-linejoin:miter;stroke-opacity:1"
       d="m 140.2747,987.45371 c 0,0 -32.98048,0.35855 -43.593742,10.93183 -10.739,10.69856 -11.2277,44.06816 -11.2277,44.06816 l 20.135252,-0.1263 c 0,0 -1.48654,-23.6388 6.09246,-30.9061 6.95489,-6.669 28.57075,-4.3961 28.57075,-4.3961 z"
       id="path4161-0-3"
       inkscape:connector-curvature="0"
       sodipodi:nodetypes="caccacc" />
    <path
       style="fill:#0000a0;fill-opacity:1;fill-rule:evenodd;stroke:#000064;stroke-width:1px;stroke-linecap:butt;stroke-linejoin:miter;stroke-opacity:1"
       d="m 10.267858,987.72156 c 0,0 32.98048,0.35855 43.59374,10.93183 10.739,10.69851 11.2277,44.06811 11.2277,44.06811 l -20.13525,-0.1263 c 0,0 1.48654,-23.6388 -6.09246,-30.9061 -6.95489,-6.669 -28.57075,-4.3961 -28.57075,-4.3961 z"
       id="path4161-0-3-4"
       inkscape:connector-curvature="0"
       sodipodi:nodetypes="caccacc" />
  </g>
</svg>
