<?xml version="1.0" encoding="UTF-8" standalone="no"?>
<!-- Created with Inkscape (http://www.inkscape.org/) -->

<svg
   xmlns:dc="http://purl.org/dc/elements/1.1/"
   xmlns:cc="http://creativecommons.org/ns#"
   xmlns:rdf="http://www.w3.org/1999/02/22-rdf-syntax-ns#"
   xmlns:svg="http://www.w3.org/2000/svg"
   xmlns="http://www.w3.org/2000/svg"
   xmlns:sodipodi="http://sodipodi.sourceforge.net/DTD/sodipodi-0.dtd"
   xmlns:inkscape="http://www.inkscape.org/namespaces/inkscape"
   width="150"
   height="150"
   viewBox="0 0 150 150"
   id="svg2"
   version="1.1"
   inkscape:version="0.91 r13725"
   sodipodi:docname="rbend.svg">
  <defs
     id="defs4" />
  <sodipodi:namedview
     id="base"
     pagecolor="#ffffff"
     bordercolor="#666666"
     borderopacity="1.0"
     inkscape:pageopacity="0.0"
     inkscape:pageshadow="2"
     inkscape:zoom="3.959798"
     inkscape:cx="11.740372"
     inkscape:cy="69.89601"
     inkscape:document-units="px"
     inkscape:current-layer="layer1"
     showgrid="true"
     units="px"
     inkscape:window-width="1920"
     inkscape:window-height="1056"
     inkscape:window-x="1920"
     inkscape:window-y="24"
     inkscape:window-maximized="1">
    <inkscape:grid
       type="xygrid"
       id="grid4136" />
  </sodipodi:namedview>
  <metadata
     id="metadata7">
    <rdf:RDF>
      <cc:Work
         rdf:about="">
        <dc:format>image/svg+xml</dc:format>
        <dc:type
           rdf:resource="http://purl.org/dc/dcmitype/StillImage" />
        <dc:title />
      </cc:Work>
    </rdf:RDF>
  </metadata>
  <g
     inkscape:label="Layer 1"
     inkscape:groupmode="layer"
     id="layer1"
     transform="translate(0,-902.36216)">
    <path
       style="fill:#0000a0;fill-opacity:1;fill-rule:evenodd;stroke:#000064;stroke-width:0.77696735px;stroke-linecap:butt;stroke-linejoin:miter;stroke-opacity:1"
       d="m 25.077888,921.98573 100.223032,0 0,15.05837 -100.223032,0 0,-15.05837"
       id="path4138"
       inkscape:connector-curvature="0" />
    <path
       style="fill:#0000a0;fill-opacity:1;fill-rule:evenodd;stroke:#000064;stroke-width:0.77854747px;stroke-linecap:butt;stroke-linejoin:miter;stroke-opacity:1"
       d="m 25.078677,1032.7378 100.221453,0 0,-15.1199 -100.221453,0 z"
       id="path4140"
       inkscape:connector-curvature="0" />
    <g
       id="g6597"
       transform="matrix(0.74827084,0,0,0.74827084,17.685506,246.26248)">
      <path
         sodipodi:nodetypes="ccaaaaacaaccacccccc"
         inkscape:connector-curvature="0"
         id="path6585"
         d="m 59,1002.3622 0,-52.00004 c 0,0 14.170649,-0.57197 21,1 2.473901,0.56944 5.072423,1.34806 7,3 2.387772,2.04632 4.301561,4.93388 5,8 0.67041,2.94307 0.307564,6.27945 -1,9 -0.816829,1.69951 -2.575502,2.76454 -4,4 -1.25909,1.092 -4,3 -4,3 0,0 4.409225,2.198 6,4 1.973114,2.23511 2.619285,5.35756 4,8 1.934239,3.70179 6,11.00004 6,11.00004 l -8,0 c 0,0 -3.177015,-6.74955 -5,-10.00004 -1.538232,-2.74276 -2.872759,-5.68403 -5,-8 -2.84576,-3.62061 -6.170974,-3.04152 -10,-3 l -5,0 0,21.00004 0,1 z"
         style="fill:#0000a0;fill-opacity:1;fill-rule:evenodd;stroke:#000064;stroke-width:1px;stroke-linecap:butt;stroke-linejoin:miter;stroke-opacity:1" />
      <path
         sodipodi:nodetypes="ccaaaaac"
         inkscape:connector-curvature="0"
         id="path6587"
         d="m 66,974.36216 0,-18 c 0,0 7.490663,-1.06254 11,0 2.300563,0.69655 4.662486,2.00279 6,4 0.945766,1.41224 1.068737,3.30172 1,5 -0.09814,2.42472 -0.255713,5.31289 -2,7 -1.975762,1.911 -5.271858,1.66415 -8,2 -2.646687,0.32582 -8,0 -8,0"
         style="fill:#ffffff;fill-opacity:1;fill-rule:evenodd;stroke:#000064;stroke-width:1px;stroke-linecap:butt;stroke-linejoin:miter;stroke-opacity:1" />
    </g>
  </g>
</svg>
