<?xml version="1.0" encoding="UTF-8" standalone="no"?>
<!-- Created with Inkscape (http://www.inkscape.org/) -->

<svg
   xmlns:dc="http://purl.org/dc/elements/1.1/"
   xmlns:cc="http://creativecommons.org/ns#"
   xmlns:rdf="http://www.w3.org/1999/02/22-rdf-syntax-ns#"
   xmlns:svg="http://www.w3.org/2000/svg"
   xmlns="http://www.w3.org/2000/svg"
   xmlns:sodipodi="http://sodipodi.sourceforge.net/DTD/sodipodi-0.dtd"
   xmlns:inkscape="http://www.inkscape.org/namespaces/inkscape"
   width="150"
   height="150"
   viewBox="0 0 150 150"
   id="svg2"
   version="1.1"
   inkscape:version="0.91 r13725"
   sodipodi:docname="sbend.svg">
  <defs
     id="defs4" />
  <sodipodi:namedview
     id="base"
     pagecolor="#ffffff"
     bordercolor="#666666"
     borderopacity="1.0"
     inkscape:pageopacity="0.0"
     inkscape:pageshadow="2"
     inkscape:zoom="7.9195959"
     inkscape:cx="66.391804"
     inkscape:cy="73.045888"
     inkscape:document-units="px"
     inkscape:current-layer="layer1"
     showgrid="true"
     units="px"
     inkscape:window-width="1920"
     inkscape:window-height="1056"
     inkscape:window-x="1920"
     inkscape:window-y="24"
     inkscape:window-maximized="1">
    <inkscape:grid
       type="xygrid"
       id="grid4136" />
  </sodipodi:namedview>
  <metadata
     id="metadata7">
    <rdf:RDF>
      <cc:Work
         rdf:about="">
        <dc:format>image/svg+xml</dc:format>
        <dc:type
           rdf:resource="http://purl.org/dc/dcmitype/StillImage" />
        <dc:title />
      </cc:Work>
    </rdf:RDF>
  </metadata>
  <g
     inkscape:label="Layer 1"
     inkscape:groupmode="layer"
     id="layer1"
     transform="translate(0,-902.36216)">
    <path
       style="fill:#0000a0;fill-opacity:1;fill-rule:evenodd;stroke:#000064;stroke-width:0.77696741px;stroke-linecap:butt;stroke-linejoin:miter;stroke-opacity:1"
       d="m 25.513484,922.07207 100.223036,0 0,15.05838 -100.223036,0 0,-15.05838"
       id="path4138"
       inkscape:connector-curvature="0" />
    <path
       style="fill:#0000a0;fill-opacity:1;fill-rule:evenodd;stroke:#000064;stroke-width:0.77854747px;stroke-linecap:butt;stroke-linejoin:miter;stroke-opacity:1"
       d="m 25.335703,1033.0086 100.221457,0 0,-15.1199 -100.221457,0 z"
       id="path4140"
       inkscape:connector-curvature="0" />
    <path
       style="fill:#0000a0;fill-opacity:1;fill-rule:evenodd;stroke:#000064;stroke-width:0.73526317px;stroke-linecap:butt;stroke-linejoin:miter;stroke-opacity:1"
       d="m 85.905143,964.3899 0,-5.14684 c 0,0 -2.899908,-1.12763 -4.411579,-1.47052 -1.927009,-0.4371 -3.906145,-0.73527 -5.882105,-0.73527 -1.97596,0 -3.963516,0.26257 -5.882106,0.73527 -2.03323,0.50093 -4.241776,0.90414 -5.882105,2.20579 -1.384431,1.09858 -2.428902,2.72006 -2.941053,4.41157 -0.639202,2.11115 -0.506786,4.47059 0,6.61737 0.377737,1.60012 1.043237,3.24903 2.20579,4.41158 1.162553,1.16256 2.869603,1.63537 4.411579,2.20579 1.895508,0.70119 3.952451,0.86965 5.882105,1.47053 1.99934,0.62257 4.018357,1.25111 5.882106,2.20579 0.786498,0.40287 1.649007,0.78432 2.205789,1.47052 0.831598,1.0249 1.431758,2.35705 1.470527,3.67632 0.04554,1.5494 -0.500605,3.20246 -1.470527,4.41158 -0.894223,1.11475 -2.325441,1.73948 -3.676316,2.20581 -1.867808,0.6447 -3.909737,0.8543 -5.882105,0.7352 -2.01737,-0.1218 -3.986598,-0.7693 -5.882105,-1.47049 -2.055968,-0.76054 -5.882106,-2.94105 -5.882106,-2.94105 l 0,5.88214 c 0,0 3.4233,1.009 5.146842,1.4705 1.952264,0.5228 3.876203,1.2236 5.882106,1.4705 1.459508,0.1797 2.946063,0.1214 4.411579,0 1.485731,-0.1229 2.993844,-0.2742 4.411579,-0.7352 1.563509,-0.5084 3.133022,-1.1722 4.411579,-2.2058 1.220416,-0.9866 2.24455,-2.27 2.941053,-3.67635 0.44849,-0.90554 0.611794,-1.9381 0.735263,-2.94105 0.119782,-0.973 0.0966,-1.96548 0,-2.94105 -0.123143,-1.24363 -0.329688,-2.49425 -0.735263,-3.67632 -0.355713,-1.03674 -0.768225,-2.09954 -1.470527,-2.94105 -0.785196,-0.94084 -1.898632,-1.56154 -2.941052,-2.20579 -1.398554,-0.86436 -2.842265,-1.71558 -4.411579,-2.20579 -1.654203,-0.51674 -3.451919,-0.37383 -5.146843,-0.73526 -1.74503,-0.37212 -3.609035,-0.56568 -5.146842,-1.47053 -0.89619,-0.52732 -1.807868,-1.24513 -2.205789,-2.20579 -0.468956,-1.13216 -0.281549,-2.48366 0,-3.67632 0.251824,-1.06674 0.69549,-2.16602 1.470526,-2.94105 1.162553,-1.16255 2.811462,-1.82805 4.411579,-2.20579 1.431188,-0.33786 2.948209,-0.1449 4.411579,0 1.243625,0.12314 2.457055,0.46109 3.676316,0.73526 0.985904,0.2217 1.993298,0.38467 2.941053,0.73527 1.027983,0.38028 2.941052,1.47052 2.941052,1.47052 z"
       id="path7250"
       inkscape:connector-curvature="0"
       sodipodi:nodetypes="ccaaaaaaaaaaaaaaaaccaaaaaaaaaaaaaaaaaaaaac" />
  </g>
</svg>
