<?xml version="1.0" encoding="utf-8"?>
<!-- Generator: Adobe Illustrator 19.0.0, SVG Export Plug-In . SVG Version: 6.00 Build 0)  -->
<svg version="1.1" id="Layer_1" xmlns="http://www.w3.org/2000/svg" xmlns:xlink="http://www.w3.org/1999/xlink" x="0px" y="0px"
	 viewBox="-5111 3088 270 270" style="enable-background:new -5111 3088 270 270;" xml:space="preserve">
<style type="text/css">
	.st0{opacity:0.89;}
	.st1{fill:#919191;}
	.st2{fill:#D6D6D6;}
	.st3{fill:#D0D0D0;}
	.st4{fill:#BCBCBC;}
	.st5{fill:#FDFDFD;fill-opacity:0;}
	.st6{fill:#919191;enable-background:new    ;}
</style>
<g class="st0">
	<path class="st1" d="M-5009.1821,3305.4131c4.502,2.5479,9.1973,4.6528,14.1533,6.1589
		c4.9517,1.5049,10.0049,2.4231,15.1729,2.7849c9.9419,0.696,19.5117-0.886,28.769-4.5078c3.1338-1.2261,6.124-2.749,9.0459-4.4092
		c0.3701-0.2271,0.748-0.4419,1.1079-0.6829c2.0029-1.334,4.0933-2.5481,5.8813-4.1851c2.7207-1.925,5.1338-4.2019,7.4058-6.6221
		c4.0718-4.3379,7.5-9.1428,10.2461-14.4299c3.0269-5.8269,5.1079-11.9741,6.3062-18.425c0.9019-4.8579,1.1816-9.762,0.9507-14.689
		c-0.3789-8.0759-2.2671-15.804-5.5659-23.1819c-3.606-8.0642-8.6689-15.103-15.1182-21.126
		c-5.4238-5.0642-11.543-9.1082-18.3608-12.0562c-0.9209-0.3979-1.3799-0.863-1.4121-1.907
		c-0.0327-1.0779-0.042-2.158-0.0679-3.2361c-0.126-5.1189-0.5259-10.2158-1.1572-15.2949c-0.083-0.6699,0.0234-1.2319,0.417-1.802
		c2.519-3.6541,5.0073-7.3301,7.5122-10.9949c0.6958-1.019,0.708-1.0181,1.8359-0.5581c2.8872,1.179,5.7632,2.384,8.6631,3.53
		c0.7319,0.2891,0.9268,0.6299,0.769,1.426c-0.9702,4.8989-1.877,9.811-2.811,14.718c-0.2549,1.342-0.2661,1.343,0.8789,1.9919
		c3.1709,1.7969,6.1919,3.822,9.1118,5.999c1.0283,0.7659,1.0303,0.77,2.0591,0.0969c4.3862-2.865,8.77-5.7319,13.1563-8.5969
		c0.9258-0.605,0.9277-0.605,1.686,0.136c2.3149,2.2639,4.6299,4.53,6.9448,6.7949c0.7632,0.7471,0.7739,0.7781,0.1611,1.71
		c-2.8599,4.342-5.728,8.677-8.5879,13.019c-0.7202,1.093-0.707,1.0959,0.1089,2.1531c2.2271,2.8831,4.2842,5.8821,6.1211,9.03
		c0.646,1.1069,0.6558,1.0989,1.8721,0.866c5.0239-0.9619,10.0479-1.9221,15.0718-2.8811c1.0698-0.2039,1.0801-0.2048,1.5039,0.7871
		c1.2251,2.8679,2.4429,5.739,3.6641,8.6079c0.4561,1.0701,0.46,1.075-0.4858,1.7161c-4.0073,2.7119-8.0171,5.4209-12.0264,8.1299
		c-0.1987,0.134-0.4009,0.2632-0.5986,0.4001c-1.0581,0.7319-1.061,0.7329-0.729,1.9509c0.6099,2.2371,1.1709,4.4871,1.5859,6.769
		c0.25,1.375,0.4487,2.76,0.6641,4.1421c0.1689,1.0889,0.207,1.1489,1.3037,1.376c5.0874,1.054,10.1763,2.1008,15.2651,3.1509
		c0.2349,0.0481,0.4668,0.125,0.7041,0.147c0.6987,0.0652,0.9087,0.4402,0.9048,1.124c-0.0181,3.239,0.0142,6.479,0.0142,9.719
		c0,1.03-0.019,1.0371-1.0288,1.252c-5.2383,1.1162-10.4761,2.228-15.7153,3.3411c-1.2627,0.2681-1.2891,0.2642-1.439,1.5142
		c-0.437,3.6589-1.1719,7.2559-2.1519,10.8069c-0.3042,1.1021-0.2939,1.1121,0.644,1.741c4.1499,2.7861,8.3037,5.5671,12.4551,8.353
		c1.1929,0.801,1.1978,0.8071,0.665,2.0969c-1.1602,2.8081-2.3521,5.604-3.4771,8.426c-0.2964,0.7432-0.6533,0.8931-1.4292,0.739
		c-4.8989-0.9709-9.8101-1.877-14.7158-2.8159c-1.5083-0.2891-1.52-0.313-2.248,0.9619c-1.7671,3.0981-3.7832,6.0271-5.9282,8.8711
		c-0.7271,0.9651-0.9229,0.79-0.0767,2.052c2.8706,4.2859,5.7378,8.575,8.6069,12.8621c0.8486,1.2688,0.7549,1.075-0.2183,2.054
		c-2.1997,2.2119-4.4077,4.416-6.6167,6.6189c-0.8882,0.886-0.7402,0.8281-1.769,0.158c-4.4253-2.8779-8.8521-5.7529-13.2783-8.6289
		c-0.9448-0.614-0.936-0.6021-1.8511,0.0549c-3.0229,2.1692-6.1035,4.249-9.2988,6.1592c-1.082,0.646-1.0869,0.6519-0.8418,1.885
		c0.9727,4.8989,1.9507,9.7969,2.9277,14.6948c0.2563,1.281,0.2603,1.2861-0.915,1.7742c-2.8789,1.198-5.7598,2.3918-8.6416,3.5828
		c-0.938,0.3882-0.9512,0.3872-1.54-0.4629c-2.916-4.207-5.8262-8.418-8.7383-12.627c-0.7188-1.0391-0.7227-1.051-1.9307-0.731
		c-3.6362,0.9619-7.3032,1.759-11.0444,2.1909c-1.1499,0.1331-1.1558,0.168-1.3838,1.271c-1.0269,4.97-2.0498,9.9419-3.0762,14.9121
		c-0.0649,0.313-0.1826,0.6208-0.2036,0.9358c-0.0454,0.6902-0.4395,0.8271-1.0483,0.821c-2.2798-0.021-4.5601-0.0078-6.8398-0.0068
		c-1.04,0-2.0801,0.0059-3.1201-0.0022c-1.1001-0.009-1.1108-0.0129-1.334-1.0598c-1.1079-5.198-2.2222-10.395-3.3008-15.6001
		c-0.1563-0.75-0.3989-1.2151-1.2544-1.312c-3.7788-0.4309-7.4927-1.21-11.1689-2.177c-1.145-0.301-1.1538-0.292-1.8267,0.6921
		c-2.7773,4.0598-5.5503,8.1218-8.3242,12.1829c-0.8169,1.196-0.8188,1.2031-2.0972,0.6809c-2.813-1.1479-5.626-2.2979-8.4336-3.459
		c-1.0254-0.4238-1.02-0.4399-0.8252-1.4739c0.9321-4.948,1.8643-9.896,2.7988-14.843c0.2212-1.1689,0.2314-1.1809-0.8276-1.7871
		c-3.2681-1.8689-6.4224-3.9109-9.397-6.2168c-0.624-0.4841-1.0522-0.446-1.6733-0.0361c-4.3711,2.887-8.7637,5.741-13.1509,8.604
		c-1.1211,0.7319-1.1221,0.729-2.0718-0.209c-2.2192-2.1919-4.4443-4.3799-6.6563-6.5791c-0.8911-0.8848-0.9219-0.7-0.1567-1.8569
		c2.8428-4.304,5.6826-8.6108,8.52-12.9199c0.708-1.0759,0.7178-1.094-0.042-2.0549c-2.3101-2.9241-4.373-6.0142-6.2573-9.2271
		c-0.5581-0.9519-0.6611-0.989-1.7378-0.781c-4.9829,0.96-9.9663,1.9229-14.9482,2.886c-1.269,0.2461-1.2788,0.2529-1.7808-0.9221
		c-1.2109-2.8298-2.418-5.6619-3.6143-8.4988c-0.4209-0.9971-0.4097-1.0122,0.5029-1.6321c4.2021-2.853,8.4072-5.7,12.6104-8.551
		c1.0557-0.7161,1.063-0.7239,0.7417-1.918c-0.958-3.554-1.7368-7.144-2.2407-10.793c-0.1851-1.3381-0.2222-1.3281-1.4819-1.5862
		c-5.1284-1.0508-10.2563-2.104-15.3843-3.158c-1.27-0.261-1.2759-0.2639-1.2769-1.5259c-0.0039-3.1201-0.0029-6.24,0-9.3601
		c0.001-1.2158,0.002-1.2419,1.165-1.481c5.207-1.0679,10.4131-2.144,15.6309-3.1541c0.8618-0.167,1.1899-0.491,1.3013-1.3599
		c0.48-3.77,1.1997-7.498,2.2529-11.1531c0.2188-0.761-0.0562-1.1389-0.667-1.5439c-4.2344-2.804-8.4482-5.6392-12.6631-8.4731
		c-1.1641-0.783-1.0923-0.5359-0.54-1.876c1.1558-2.8098,2.3281-5.614,3.4961-8.4189c0.4277-1.0281,0.4341-1.041,1.584-0.822
		c4.3179,0.8201,8.6328,1.6511,12.9497,2.4761c0.7461,0.1431,1.5103,0.218,2.2344,0.4329c0.73,0.217,1.0718-0.054,1.415-0.6699
		c1.5195-2.7271,3.2368-5.3311,5.0889-7.845c0.4028-0.5471,0.771-1.1321,1.2427-1.614c0.6152-0.6279,0.4551-1.1211,0.0122-1.772
		c-2.854-4.2009-5.6758-8.4241-8.4941-12.6489c-1.0996-1.6501-1.1021-1.2522,0.2451-2.6121
		c2.1382-2.1611,4.3149-4.2839,6.4331-6.4641c0.5488-0.5649,0.939-0.6069,1.603-0.1689c4.4409,2.926,8.9111,5.8081,13.373,8.7021
		c0.9878,0.6409,0.9897,0.6379,1.9639-0.0801c2.9961-2.208,6.0942-4.262,9.2871-6.1741c1.0127-0.6069,1.0171-0.6011,0.7749-1.8069
		c-0.981-4.897-1.9629-9.7952-2.9438-14.6921c-0.2554-1.2759-0.2461-1.3179,0.9189-1.804c2.8779-1.2,5.772-2.363,8.6367-3.593
		c0.7344-0.3149,1.1162-0.165,1.5552,0.478c2.8418,4.1609,5.7139,8.301,8.6011,12.4309c0.417,0.5972,0.5317,1.157,0.4541,1.8921
		c-0.3823,3.5759-0.7144,7.158-0.8271,10.7549c-0.0688,2.197-0.311,4.3901-0.2002,6.5891c0.04,0.801-0.4429,1.0171-1.0156,1.26
		c-3.394,1.437-6.6753,3.094-9.7734,5.0969c-14.9849,9.6902-24.522,23.229-28.5996,40.5981
		c-0.8882,3.782-1.353,7.6228-1.499,11.5129c-0.5762,15.3301,3.8418,29.1021,12.8906,41.418
		c3.4512,4.697,7.5522,8.7891,12.1182,12.4131C-5014.1201,3302.2571-5011.6738,3303.8679-5009.1821,3305.4131z M-5010.249,3310.7141
		c-1.8452-0.197-3.8179,1.0869-3.9409,3.771c-0.0933,2.0229,1.749,3.8799,3.916,3.9128c2.166,0.033,3.9121-1.6799,3.9102-3.842
		C-5006.3652,3312.355-5008.0142,3310.7251-5010.249,3310.7141z M-4952.0288,3322.7261c1.9238,0.259,4.083-1.645,3.96-3.7551
		c-0.1401-2.3918-1.4819-3.7458-3.8843-3.9031c-2.0288-0.1328-4.0029,1.8501-3.9907,3.8352
		C-4955.9302,3321.082-4954.251,3322.7209-4952.0288,3322.7261z M-4962.0371,3324.8879c-0.2397-1.229-0.48-2.4438-0.7119-3.6599
		c-0.041-0.2151-0.2451-0.4841,0.0322-0.636c0.1787-0.0981,0.3667,0.113,0.5259,0.2219c1.6812,1.1521,3.3569,2.311,5.0327,3.469
		c0.1294,0.0891,0.249,0.2551,0.4141,0.178c0.1724-0.0811,0.1104-0.2749,0.084-0.4229c-0.0801-0.4722-0.1631-0.9441-0.2588-1.4131
		c-0.3281-1.604-0.6592-3.208-0.9951-4.8101c-0.0571-0.272-0.103-0.5779-0.4458-0.6379c-0.252-0.0439-0.4819,0.053-0.6079,0.2859
		c-0.123,0.2261-0.0444,0.4651,0.0068,0.7002c0.2349,1.0928,0.4639,2.188,0.6968,3.281c0.04,0.1899,0.1602,0.4209-0.0479,0.5449
		c-0.188,0.1121-0.377-0.0549-0.5439-0.1611c-0.1689-0.106-0.334-0.22-0.498-0.334c-1.4741-1.0288-2.9468-2.0588-4.4219-3.0869
		c-0.188-0.1311-0.4023-0.3821-0.6182-0.2119c-0.2129,0.167-0.0049,0.448,0.0371,0.6699c0.1699,0.9031,0.3608,1.801,0.5439,2.7009
		c0.231,1.135,0.4561,2.271,0.6938,3.405c0.0723,0.345,0.2593,0.604,0.6621,0.5291
		C-4962.126,3325.438-4962.0181,3325.1899-4962.0371,3324.8879z M-4935.8032,3313.6431c-0.1758-2.365-1.6069-3.687-3.8267-3.814
		c-2.1392-0.123-3.8481,1.6799-3.856,3.866c-0.0083,2.2429,1.5776,3.8521,3.8169,3.874
		C-4937.5938,3317.5879-4935.8208,3315.7871-4935.8032,3313.6431z M-4936.0459,3308.948c-0.2251,1.6189,1.272,3.5139,3.0908,3.865
		c1.3579,0.262,3.0713-0.386,3.7959-1.5161c0.8164-1.2698,0.7563-2.5608,0.0034-3.8418c-0.1411-0.24-0.2842-0.5601-0.6284-0.386
		c-0.7139,0.3618-1.3218,0.885-1.9238,1.406c-0.166,0.1438-0.1748,0.3618-0.041,0.542c0.1279,0.1729,0.3252,0.2368,0.5322,0.1709
		c0.1489-0.0479,0.2827-0.1409,0.4248-0.2129c0.2739-0.1392,0.5391-0.4431,0.8652-0.2021c0.377,0.2791,0.3149,0.6812,0.209,1.0911
		c-0.3823,1.4819-1.499,2.135-3.1274,1.8071c-1.3477-0.2722-2.3306-1.594-2.2227-2.9932c0.1108-1.4438,1.106-2.4299,2.5449-2.519
		c0.2388-0.0149,0.479-0.0068,0.7168-0.032c0.2563-0.0269,0.459-0.1409,0.4863-0.4309c0.0249-0.2771-0.1392-0.4419-0.3633-0.561
		c-0.2949-0.156-0.6108-0.187-0.9312-0.123C-4934.8628,3305.4661-4936.2202,3307.053-4936.0459,3308.948z M-5013.627,3309.386
		c-0.0552-0.4719-0.2119-0.9509-0.5781-1.355c-0.4321-0.478-0.9438-0.8511-1.4707-1.2151c-0.4932-0.3408-0.8584-0.303-1.1934,0.2202
		c-1.0747,1.678-2.166,3.3459-3.2549,5.0159c-0.188,0.2881-0.3311,0.5649,0.0142,0.834c0.3721,0.29,0.6631,0.157,0.9019-0.1929
		c0.27-0.395,0.5288-0.7981,0.811-1.1841c0.1528-0.209,0.2451-0.6101,0.5811-0.478c0.2949,0.116,0.1621,0.4929,0.1699,0.7561
		c0.019,0.678,0.0142,1.356,0.0151,2.0339c0.001,0.426,0.1406,0.7681,0.52,1.01c0.3979,0.2549,0.6719,0.303,0.667-0.2981
		c-0.0054-0.6379,0.0146-1.2781-0.0313-1.9128c-0.0781-1.0581-0.0967-1.0562,0.9653-1.1802
		C-5014.5112,3311.322-5013.6558,3310.4141-5013.627,3309.386z M-4965.5679,3324.894c-0.1699-1.9409-0.3301-3.7681-0.4922-5.594
		c-0.0317-0.3601-0.186-0.624-0.5859-0.6179c-0.481,0.0068-0.6021,0.345-0.5688,0.74c0.0327,0.396,0.1348,0.7859,0.1826,1.1819
		c0.061,0.502-0.0918,0.854-0.6646,0.9309c-0.5132,0.0691-1.0093,0.2432-1.5391,0.2212c-0.874-0.0371-1.0483-0.186-1.1143-1.0471
		c-0.0308-0.3979-0.021-0.8-0.061-1.196c-0.0249-0.249-0.1499-0.469-0.436-0.4919c-0.3159-0.0249-0.5469,0.1379-0.6357,0.4351
		c-0.0562,0.186-0.0752,0.3989-0.0469,0.5911c0.2417,1.6589,0.3486,3.3298,0.4756,4.9988c0.021,0.2742,0.1133,0.5461,0.2021,0.8091
		c0.0811,0.241,0.2441,0.418,0.5322,0.385c0.2939-0.0339,0.3857-0.2529,0.415-0.5049c0.0728-0.644-0.0464-1.269-0.1504-1.9031
		c-0.125-0.759,0.1123-1.0281,0.8794-1.094c0.5566-0.0481,1.1206-0.0129,1.6768-0.0681c0.5552-0.0549,0.7031,0.239,0.7271,0.7021
		c0.0259,0.5181-0.0059,1.05,0.106,1.55c0.085,0.3789-0.0161,1.0569,0.585,1.0139
		C-4965.4141,3325.8899-4965.623,3325.2241-4965.5679,3324.894z M-4996.8149,3316.6909c0.0288-0.406-0.0972-0.647-0.395-0.75
		c-0.4238-0.146-0.5889,0.165-0.6782,0.478c-0.5566,1.9551-1.0986,3.9141-1.6416,5.873c-0.0942,0.3411-0.0552,0.6699,0.3218,0.7881
		c0.4028,0.126,0.5811-0.1912,0.6831-0.501c0.1997-0.6052,0.3638-1.2222,0.5508-1.832c0.0571-0.186,0.1172-0.428,0.3589-0.395
		c0.1172,0.0159,0.2461,0.197,0.3052,0.332c0.3691,0.8389,0.7222,1.6848,1.0762,2.5298c0.1548,0.3711,0.2959,0.7522,0.7168,0.905
		c0.2192,0.0791,0.4653,0.2432,0.6772,0.0911c0.2529-0.1819,0.0737-0.4519-0.0093-0.6531c-0.3799-0.9209-0.77-1.8379-1.187-2.7429
		c-0.5508-1.1941-0.5288-1.27,0.6743-1.9131c0.7729-0.4128,1.5356-0.8459,2.3008-1.2729c0.1328-0.074,0.3501-0.1431,0.2939-0.314
		c-0.0361-0.1079-0.249-0.1689-0.3921-0.228c-0.4927-0.2061-0.938-0.041-1.3677,0.197c-0.6631,0.366-1.3081,0.7681-1.9893,1.095
		c-0.543,0.261-0.7578,0.0771-0.6396-0.512C-4997.0698,3317.439-4996.9141,3317.0249-4996.8149,3316.6909z M-5029.8838,3303.7771
		c-0.0093,1.2998,0.543,2.2148,1.5908,2.6228c1.0972,0.427,2.105,0.3362,2.96-0.574c0.5469-0.5808,1.123-1.134,1.6851-1.7
		c0.5049-0.509,1.0298-0.998,1.4111-1.6199c0.1958-0.321,0.231-0.5972-0.0723-0.844c-0.2969-0.2432-0.522-0.04-0.7188,0.167
		c-0.7671,0.811-1.6421,1.5188-2.3013,2.4299c-0.2598,0.3599-0.5498,0.6809-0.9287,0.918c-0.8184,0.512-1.6123,0.469-2.1714-0.1221
		c-0.5859-0.6189-0.6138-1.3479-0.0566-2.1729c0.6299-0.9351,1.521-1.6301,2.2866-2.4412c0.3311-0.3508,0.6401-0.7109,0.8672-1.137
		c0.1089-0.2048,0.0562-0.385-0.1079-0.5349c-0.1553-0.1421-0.335-0.2361-0.54-0.127c-0.1382,0.073-0.2671,0.1738-0.3799,0.283
		c-1.0903,1.053-2.146,2.1389-3.0742,3.3411C-5029.7959,3302.7319-5029.9111,3303.2639-5029.8838,3303.7771z M-4923.0239,3301.2319
		c-0.0449-0.27-0.1919-0.4639-0.3833-0.6079c-0.2485-0.188-0.4526-0.0151-0.627,0.1509c-0.4048,0.385-0.7939,0.7861-1.2007,1.1692
		c-0.1724,0.1619-0.3521,0.3159-0.6313,0.166c-0.6807-0.3662-0.8105-1.0681-0.2778-1.6431c0.271-0.292,0.5688-0.5601,0.8442-0.8491
		c0.2129-0.2239,0.5317-0.446,0.2358-0.803c-0.3101-0.374-0.6289-0.2339-0.9189,0.052c-0.5669,0.561-1.1543,1.094-1.7861,1.5872
		c-0.6421,0.501-0.6191,0.709-0.021,1.3459c1.3359,1.425,2.833,2.6951,4.0659,4.22c0.165,0.2029,0.3999,0.373,0.6113,0.196
		c0.8237-0.688,1.626-1.4021,2.4116-2.1321c0.2422-0.2251,0.1714-0.5071-0.064-0.738c-0.2388-0.2349-0.5-0.2559-0.7437-0.0378
		c-0.3564,0.3188-0.7251,0.6348-1.0273,1.002c-0.481,0.583-0.8457,0.5049-1.3521-0.012c-1.0718-1.0962-1.0908-1.0601,0.0454-2.0852
		C-4923.5239,3301.927-4923.1392,3301.677-4923.0239,3301.2319z M-4981.021,3320.084c0.1938-0.011,0.354-0.0129,0.5122-0.03
		c0.3149-0.032,0.5229-0.198,0.5605-0.519c0.0522-0.4338-0.3066-0.3728-0.5576-0.4458c-0.896-0.2622-1.814-0.2112-2.73-0.2061
		c-0.5483,0.0029-0.7661,0.2869-0.8003,0.8169c-0.1118,1.7441-0.2178,3.489-0.4517,5.2241c-0.125,0.928,0.124,1.209,1.0728,1.354
		c0.748,0.114,1.5161-0.032,2.2622,0.155c0.3638,0.0908,0.646,0.0068,0.6709-0.4302c0.0229-0.3938-0.2051-0.5889-0.5742-0.616
		c-0.397-0.0291-0.7988-0.0081-1.1938-0.051c-0.917-0.0999-1.1519-0.4448-1.0552-1.491c0.085-0.915,0.3882-1.177,1.3262-1.0989
		c0.355,0.03,0.7041,0.135,1.0591,0.1738c0.2939,0.0332,0.582-0.033,0.645-0.3789c0.0679-0.3711-0.126-0.636-0.4819-0.7051
		c-0.3491-0.0669-0.7124-0.0598-1.0703-0.0769c-0.9878-0.0491-1.2559-0.2539-1.1899-0.916c0.0781-0.783,0.3799-0.9729,1.3188-0.8369
		C-4981.4619,3320.0391-4981.2241,3320.0601-4981.021,3320.084z M-4919.5322,3300.575c-0.625-0.0369-0.9248,0.0662-0.9829,0.3979
		c-0.103,0.584,0.4082,0.5852,0.7529,0.7251c0.3042,0.124,0.6172,0.115,0.9414,0.0381c1.314-0.3101,2.2148-1.6912,1.8809-2.9011
		c-0.4209-1.5239-1.6563-2.1489-3.1699-1.593c-0.5249,0.1921-1.0342,0.4312-1.563,0.6082
		c-0.3931,0.1309-0.6982-0.0671-0.9189-0.3911c-0.2051-0.3-0.1563-0.6011,0.0127-0.9031c0.2109-0.3779,0.5742-0.5398,0.9492-0.688
		c0.3149-0.125,0.6431-0.3259,0.5308-0.6829c-0.1421-0.4531-0.5947-0.313-0.9268-0.2551c-1.1421,0.198-1.9751,1.467-1.7471,2.6169
		c0.1978,0.999,1.2432,1.6211,2.4302,1.3672c0.5376-0.115,1.0317-0.427,1.5649-0.584c0.5566-0.165,1.1309-0.1741,1.519,0.3679
		c0.3047,0.426,0.3027,0.918,0.0698,1.3669C-4918.4712,3300.6111-4918.9761,3300.6909-4919.5322,3300.575z M-5032.313,3301.8269
		c1.5298,0.0261,2.687-1.4509,2.2842-2.9338c-0.147-0.5391-0.3501-1.062-0.4961-1.6011c-0.103-0.3821,0.0127-0.71,0.3701-0.926
		c0.3628-0.22,0.6919-0.115,0.9976,0.116c0.3711,0.28,0.5703,0.6479,0.5864,1.125c0.0117,0.3721,0.3188,0.437,0.6006,0.4451
		c0.373,0.011,0.438-0.281,0.4634-0.574c0.0996-1.1392-1.0503-2.3459-2.2393-2.354c-1.2168-0.0081-1.8848,0.7881-1.8149,2.1421
		c0.021,0.4058,0.1509,0.7808,0.2578,1.1648c0.0854,0.3062,0.1851,0.6182,0.2012,0.9312c0.042,0.821-0.5571,1.4138-1.3169,1.3508
		c-0.6611-0.0549-1.189-0.741-1.0981-1.448c0.0249-0.1958,0.104-0.385,0.1499-0.5789c0.0781-0.3311-0.0898-0.5391-0.3696-0.666
		c-0.3521-0.1589-0.4961,0.0879-0.645,0.343C-5035.208,3299.7771-5034.002,3301.7991-5032.313,3301.8269z M-4978.7598,3322.8311
		c-0.1323,1.199,0.3906,2.1851,1.3066,2.9968c1.1279,1.0012,2.4111,1.1182,3.7949,0.655c0.5581-0.187,0.8042-0.627,0.6011-1.116
		c-0.249-0.5979-0.5947,0.0032-0.856,0.0901c-1.501,0.4958-2.8677,0.03-3.4878-1.2441c-0.5322-1.094-0.3989-2.439,0.3237-3.2559
		c0.7554-0.854,2.0903-1.1082,3.3149-0.6479c0.2241,0.084,0.4824,0.4639,0.6982,0.074c0.1528-0.2761,0.0908-0.6301-0.1353-0.8979
		c-0.1587-0.1902-0.3945-0.2522-0.6206-0.3362C-4975.9521,3318.355-4978.9951,3320.1641-4978.7598,3322.8311z M-5018.3569,3306.207
		c0.0068-0.8521-1.3652-2.6091-2.1479-2.7771c-0.3511-0.075-0.5093,0.1482-0.6802,0.366c-1.251,1.5962-2.501,3.1921-3.7461,4.792
		c-0.2158,0.2781-0.2939,0.5552,0.0591,0.8201c0.3223,0.2419,0.5898,0.199,0.8271-0.095c0.3491-0.4341,0.7129-0.8589,1.0161-1.324
		c0.272-0.416,0.5376-0.551,0.96-0.218c0.186,0.147,0.394,0.2771,0.6089,0.375
		C-5019.9131,3308.8501-5018.3711,3307.8821-5018.3569,3306.207z M-5002,3321.0161c-2.1831,0.0759-3.5508-2.0291-2.603-3.9702
		c0.9761-1.9978,2.9248-2.2869,4.6328-0.6809c0.1401,0.1311,0.2212,0.4021,0.4443,0.332c0.251-0.0781,0.2959-0.3569,0.3237-0.5969
		c0.041-0.3501-0.104-0.6431-0.3818-0.8311c-1.019-0.6931-2.105-1.158-3.377-0.835c-1.9839,0.5029-3.0591,2.1099-2.9199,4.356
		c0.1128,1.8279,1.9849,3.3921,3.8057,3.2139c0.5361-0.052,0.8853-0.3198,0.8301-0.8098
		C-5001.2998,3320.6841-5001.752,3321.0701-5002,3321.0161z M-4987.96,3319.8c-0.0981,0.605-0.188,1.156-0.2769,1.707
		c-0.1831,1.1409-0.3682,2.282-0.5439,3.4238c-0.0552,0.3582,0.0698,0.6492,0.4409,0.74c0.438,0.1082,0.5381-0.2439,0.6289-0.5508
		c0.0552-0.1892,0.0518-0.395,0.082-0.592c0.1729-1.1431,0.3359-2.2881,0.5249-3.428c0.207-1.251,0.2168-1.2532,1.4741-1.5142
		c0.2451-0.051,0.4829-0.105,0.54-0.384c0.0557-0.2798-0.1021-0.4619-0.3584-0.5349c-1.1548-0.3291-2.3477-0.4509-3.5317-0.615
		c-0.27-0.0381-0.4492,0.1421-0.5029,0.4089c-0.0659,0.3301,0.0791,0.543,0.4028,0.6172c0.1938,0.0449,0.397,0.0508,0.5913,0.0938
		C-4988.1309,3319.2529-4987.938,3319.4719-4987.96,3319.8z M-4942.3999,3318.7959c-0.0103-0.4458-0.3809-0.564-1-0.3179
		c-1.2651,0.5029-1.2793,0.509-1.8359-0.718c-0.5771-1.272-1.1221-2.5581-1.686-3.8359c-0.188-0.426-0.4219-0.835-0.9819-0.5352
		c-0.4941,0.2642-0.1533,0.6292-0.0283,0.928c0.6172,1.4722,1.2651,2.9312,1.8779,4.405c0.728,1.7522,0.7173,1.7561,2.4771,0.9331
		c0.2891-0.135,0.5884-0.25,0.877-0.384C-4942.5029,3319.179-4942.3979,3319.0181-4942.3999,3318.7959z M-4929.8472,3302.4341
		c-0.314,0.116-0.606,0.282-0.4258,0.6829c0.1279,0.2852,0.3218,0.55,0.5259,0.791c1.1533,1.3621,2.3252,2.709,3.4751,4.075
		c0.272,0.323,0.4961,0.678,0.9458,0.2661c0.3613-0.3311,0.1812-0.623-0.0737-0.925c-1.2559-1.4829-2.501-2.9749-3.7559-4.458
		C-4929.333,3302.657-4929.52,3302.437-4929.8472,3302.4341z"/>
	<path class="st1" d="M-4996.7681,3189.739c0.0083-9.168,0.7671-18.2749,2.106-27.343c2.0132-13.6321,5.231-26.98,9.312-40.1299
		c2.418-7.7922,5.1323-15.478,8.2441-23.0222c0.228-0.553,0.4561-1.115,0.7632-1.625c0.3857-0.6409,0.7466-0.6238,1.1577,0.0251
		c0.2119,0.335,0.3652,0.7109,0.52,1.0779c4.793,11.4041,8.7061,23.1091,11.9712,35.0352
		c2.6089,9.5288,4.6938,19.1719,6.1816,28.939c0.6982,4.5811,1.2124,9.1851,1.583,13.8088
		c0.3872,4.8242,0.625,9.6541,0.5903,14.4871c-0.043,5.9131-0.2271,11.8271-0.4761,17.7361
		c-0.2261,5.3879-0.5469,10.7749-0.9561,16.1519c-0.5552,7.2891-1.1792,14.5742-2.0498,21.8352
		c-0.3833,3.1958,0.0337,2.5269-2.855,3.3508c-5.3472,1.5261-10.833,1.988-16.377,1.874c-4.8994-0.0999-9.7163-0.751-14.4185-2.1609
		c-1.3218-0.397-1.3018-0.4102-1.4517-1.8181c-0.4512-4.21-0.9609-8.415-1.3652-12.6289c-0.4038-4.2151-0.7397-8.438-1.0488-12.6611
		c-0.332-4.542-0.6489-9.0869-0.8779-13.635c-0.1953-3.8708-0.2231-7.751-0.3892-11.6238
		C-4996.7129,3194.854-4996.769,3192.2981-4996.7681,3189.739z"/>
	<path class="st2" d="M-4935.0518,3300.573c-1.7881,1.637-3.8784,2.8501-5.8813,4.1851c-0.3608,0.24-0.7388,0.4558-1.1079,0.6829
		c0.0479-0.428-0.1641-0.772-0.3672-1.1169c-4.5039-7.6479-9.0088-15.2959-13.5117-22.9441
		c-0.771-1.3088-1.4971-2.647-2.3213-3.9209c-0.5088-0.7871-0.7026-1.582-0.5898-2.4951c0.269-2.1799,0.52-4.3618,0.7769-6.543
		c0.3794-3.2119,0.7544-6.4238,1.1353-9.635c0.5269-4.4409,1.064-8.8799,1.5859-13.322c0.3589-3.054,0.7041-6.1089,1.0488-9.1638
		c0.2593-2.301,0.5083-4.604,0.7622-6.905c0.1401-0.0029,0.2798-0.0071,0.4199-0.01c1.1528,3.866,2.2988,7.7351,3.4609,11.5979
		c3.4292,11.4021,6.8643,22.802,10.2983,34.2021c1.3257,4.3989,2.6519,8.7988,3.9917,13.1938
		c0.2012,0.6582,0.3013,1.3152,0.2979,2.0022C-4935.063,3293.7771-4935.0542,3297.175-4935.0518,3300.573z"/>
	<path class="st2" d="M-5009.1821,3305.4131c-2.4917-1.5452-4.938-3.155-7.252-4.959c0.3291-0.374,0.229-0.832,0.23-1.2612
		c0.0029-2.2368,0.0483-4.4758-0.0337-6.7109c-0.0742-2.0229,0.2456-3.947,0.8379-5.8809
		c2.9731-9.697,5.8857-19.4121,8.8159-29.1221c2.8032-9.2891,5.6001-18.5801,8.3999-27.8711c0.146,0.001,0.292,0.0032,0.438,0.0042
		c0.3672,3.1729,0.7339,6.3459,1.1021,9.5178c0.3643,3.1331,0.729,6.2651,1.0942,9.3982c0.3521,3.0139,0.7061,6.0269,1.0566,9.041
		c0.3701,3.1719,0.7354,6.345,1.1104,9.5159c0.2759,2.3391,0.5376,4.6812,0.8589,7.0142c0.1802,1.3059,0.0508,2.4548-0.6611,3.6509
		c-5.1509,8.656-10.2368,17.3521-15.3271,26.0439C-5008.8032,3304.293-5009.2988,3304.7339-5009.1821,3305.4131z"/>
	<path class="st1" d="M-4975.2813,3276.915c-3.8936,0.012-7.2568-0.3391-10.5127-1.439c-0.189-0.064-0.3779-0.1282-0.5649-0.198
		c-2.627-0.9871-2.709-1.0901-3.1841-3.854c-1.0889-6.3372-1.9932-12.7012-2.8418-19.073c-0.1372-1.031-0.0591-1.1021,1-0.7791
		c5.2427,1.6011,10.6216,2.249,16.0815,2.1809c5.2891-0.0659,10.5171-0.666,15.6064-2.207c1.4048-0.4248,1.375-0.418,1.1938,1.0342
		c-0.7241,5.825-1.5352,11.6379-2.4863,17.4299c-0.168,1.0239-0.3716,2.0439-0.502,3.073
		c-0.0879,0.7009-0.5566,1.0229-1.0928,1.3159c-1.9551,1.0701-4.085,1.6069-6.2578,1.97
		C-4971.1279,3276.7529-4973.4341,3276.979-4975.2813,3276.915z"/>
	<path class="st2" d="M-4935.7949,3220.7461c0.0181,1.251,0.0249,2.4099-0.2583,3.5469c-0.0767,0.3101-0.1436,0.626-0.2607,0.9211
		c-0.3818,0.9648-1.1499,1.501-2.1021,1.4978c-0.9429-0.0029-1.6812-0.5569-2.0718-1.5388
		c-0.4092-1.0251-0.3682-2.1211-0.4912-3.187c-0.2021-1.76-0.0059-3.5142,0.3662-5.2341c0.2886-1.3359,1.0889-2.012,2.1738-2.0239
		c1.0962-0.012,1.9658,0.761,2.3081,2.062C-4935.7822,3218.1189-4935.7598,3219.4761-4935.7949,3220.7461z M-4937.2529,3220.729
		c-0.084-1.0581-0.1611-2.092-0.251-3.126c-0.0171-0.197-0.0669-0.395-0.1289-0.583c-0.125-0.3821-0.249-0.814-0.7573-0.792
		c-0.4741,0.02-0.6587,0.4099-0.771,0.8049c-0.0967,0.344-0.2017,0.7009-0.2061,1.054c-0.02,1.7581-0.0156,3.5171-0.0039,5.2751
		c0.0029,0.4829,0.1123,0.9619,0.3501,1.3828c0.3672,0.6482,0.9331,0.6401,1.2632-0.0129c0.124-0.2449,0.21-0.5269,0.2368-0.7988
		C-4937.416,3222.8589-4937.3389,3221.7839-4937.2529,3220.729z"/>
	<path class="st2" d="M-4929.5439,3220.238c-0.0161,1.5969,0.0479,2.759-0.2402,3.8979c-0.0488,0.1931-0.0737,0.3931-0.127,0.585
		c-0.356,1.292-1.1221,1.9751-2.2236,1.991c-1.0962,0.0161-1.8511-0.6689-2.2432-1.958c-0.2842-0.9319-0.2568-1.8989-0.3662-2.8469
		c-0.1929-1.678,0.0503-3.345,0.3223-5.002c0.0259-0.157,0.0669-0.313,0.1167-0.4651c0.3569-1.072,1.0991-1.6829,2.0684-1.7119
		c0.9937-0.0291,1.8628,0.6021,2.2256,1.6819C-4929.5488,3217.7949-4929.5142,3219.2339-4929.5439,3220.238z M-4931.0151,3220.7471
		c-0.0098-0.001-0.02-0.002-0.0308-0.002c0-0.2002,0.0249-0.4031-0.0039-0.5991c-0.1621-1.103-0.0664-2.239-0.4102-3.3179
		c-0.1011-0.3162-0.2778-0.5981-0.6553-0.6082c-0.3696-0.01-0.5938,0.248-0.7056,0.5559c-0.1362,0.3721-0.272,0.7651-0.293,1.1541
		c-0.0981,1.8372-0.0801,3.676-0.0142,5.5132c0.0161,0.4429,0.1289,0.8728,0.3271,1.2688c0.1479,0.2961,0.3716,0.543,0.7437,0.4971
		c0.3101-0.0381,0.48-0.2759,0.5742-0.551c0.0898-0.2629,0.187-0.5339,0.2139-0.8079
		C-4931.1689,3222.8169-4931.0972,3221.782-4931.0151,3220.7471z"/>
	<path class="st2" d="M-4944.8452,3226.48c-0.2798,0-0.5586-0.0029-0.8389,0c-2.1211,0.0271-1.6567-0.145-1.0078-1.6499
		c0.6157-1.4302,1.3081-2.8271,1.9561-4.2432c0.3657-0.8008,0.6641-1.627,0.8257-2.4968c0.0439-0.2341,0.0981-0.4731,0.0923-0.709
		c-0.02-0.761-0.396-1.3391-0.8843-1.4092c-0.5137-0.073-0.8838,0.3401-1.061,1.2161c-0.063,0.312-0.062,0.6379-0.1309,0.948
		c-0.0908,0.408-0.4351,0.4089-0.7607,0.406c-0.2993-0.0029-0.5273-0.085-0.6333-0.4199c-0.5049-1.606,0.7231-3.3591,2.394-3.3989
		c1.4878-0.0361,2.418,0.762,2.5933,2.2449c0.1196,1.0139-0.0791,1.989-0.4243,2.938c-0.5181,1.429-1.167,2.7961-1.896,4.1311
		c-0.6499,1.1899-0.6108,1.2249,0.6992,1.241c0.2798,0.0029,0.5591,0.0039,0.8389,0.0059c0.394,0.0022,0.7271,0.0872,0.7358,0.5762
		c0.0093,0.4758-0.2866,0.6118-0.6997,0.6118c-0.5991-0.001-1.1982,0-1.7983,0
		C-4944.8452,3226.4761-4944.8452,3226.478-4944.8452,3226.48z"/>
	<path class="st2" d="M-5022.2222,3220.6421c0-1.4771-0.0078-2.9541,0.002-4.4312c0.0083-1.23,0.0244-1.239,1.2983-1.25
		c0.6777-0.0059,1.3569,0,2.0356,0.0061c0.3843,0.0029,0.7271,0.062,0.7402,0.5659c0.0122,0.4819-0.2769,0.585-0.6851,0.626
		c-0.5811,0.0591-1.3101-0.2668-1.7119,0.2261c-0.439,0.5381-0.1328,1.3091-0.1929,1.9751c-0.0073,0.0789-0.001,0.1599-0.001,0.239
		c0.0059,1.0669-0.1924,1.4968,1.3877,1.4058c0.1963-0.011,0.3999,0.0132,0.5923,0.0571c0.2847,0.0659,0.3438,0.3049,0.3418,0.5559
		c-0.002,0.2581-0.0962,0.47-0.377,0.5332c-0.1162,0.0259-0.2368,0.0298-0.355,0.042c-1.5889,0.168-1.5889,0.168-1.5898,1.803
		c0,0.1599-0.001,0.3188,0,0.479c0.0127,1.7778-0.1724,1.8899,1.7017,1.8079c0.1191-0.0049,0.2393,0.009,0.3584,0.0171
		c0.3237,0.0229,0.5117,0.179,0.5269,0.522c0.0171,0.3811-0.1333,0.6279-0.5342,0.6331c-0.958,0.0129-1.915,0.0129-2.873,0.009
		c-0.626-0.0022-0.6641-0.448-0.6641-0.9131c0-1.637,0-3.2729,0-4.9099
		C-5022.2212,3220.6421-5022.2212,3220.6421-5022.2222,3220.6421z"/>
	<path class="st2" d="M-5015.2642,3217.6479c-0.0229,0.437,0.127,0.8779,0.4634,1.2561c0.5298,0.5969,1.0557,1.197,1.584,1.7949
		c1.1719,1.3269,1.4355,2.8281,0.772,4.457c-0.543,1.3301-2.1143,1.9099-3.4053,1.3469c-0.4287-0.187-0.6079-0.4729-0.6069-0.9219
		c0.001-0.4302,0.0732-0.728,0.6152-0.5061c0.7178,0.2939,1.4258,0.3669,1.9268-0.3708c0.543-0.8,0.377-1.6392-0.1309-2.3582
		c-0.5039-0.7129-1.1191-1.353-1.7241-1.989c-1.0708-1.124-1.3271-2.4209-0.8799-3.874c0.4399-1.4319,2.103-2.179,3.4858-1.5859
		c0.1099,0.0471,0.2349,0.082,0.3203,0.158c0.2739,0.2441,0.2769,0.5811,0.1929,0.8882c-0.126,0.4609-0.4399,0.1638-0.6782,0.114
		C-5014.5781,3215.792-5015.27,3216.334-5015.2642,3217.6479z"/>
	<path class="st2" d="M-5009.9268,3221.3301c0-1.3572-0.019-2.7141,0.0078-4.0701c0.0142-0.707-0.1431-1.175-0.9819-1.1101
		c-0.3911,0.03-0.7192-0.0869-0.7222-0.5798c-0.0029-0.4832,0.3013-0.603,0.7051-0.604c1.1968-0.002,2.394-0.002,3.5908,0
		c0.4033,0,0.707,0.116,0.7051,0.6018c-0.002,0.4932-0.3257,0.613-0.7178,0.582c-0.855-0.0679-0.9712,0.428-0.9663,1.1201
		c0.0171,2.7129,0.0073,5.427,0.0054,8.1399c0,0.53,0.0386,1.063-0.7554,1.072c-0.6118,0.0071-0.873-0.2349-0.8677-0.843
		c0.0127-1.436,0.0039-2.8728,0.0039-4.3088C-5009.9229,3221.3301-5009.9248,3221.3301-5009.9268,3221.3301z"/>
	<path class="st2" d="M-4925.8462,3214.9629c0.5591,0,1.1191-0.021,1.6772,0.0051c0.8291,0.0391,0.9199,0.156,0.7129,0.9409
		c-0.1831,0.6951-0.4077,1.3782-0.6191,2.0652c-0.748,2.4438-1.4946,4.887-2.2466,7.3298c-0.082,0.2661-0.1631,0.5391-0.292,0.783
		c-0.2935,0.55-0.8384,0.4512-1.2754,0.3411c-0.561-0.1409-0.2178-0.594-0.1309-0.8831c0.8198-2.7139,1.667-5.4189,2.4971-8.1299
		c0.377-1.2319,0.3628-1.241-0.9683-1.2561c-0.3989-0.0049-0.7988-0.0029-1.1978-0.012c-0.3589-0.009-0.6182-0.1331-0.6318-0.551
		c-0.0161-0.478,0.2617-0.627,0.6777-0.6289c0.5991-0.002,1.1982-0.001,1.7969-0.001
		C-4925.8462,3214.9661-4925.8462,3214.9651-4925.8462,3214.9629z"/>
	<path class="st2" d="M-5005.209,3226.4331c-0.4712,0.0229-0.8882-0.395-0.895-0.8972c-0.0068-0.4978,0.4028-0.9558,0.8662-0.9248
		c0.5059,0.033,0.7749,0.3398,0.8179,0.8379C-5004.375,3225.9709-5004.7319,3226.4089-5005.209,3226.4331z"/>
	<path class="st3" d="M-4953.103,3229.3831c-0.1401,0.0029-0.2798,0.0068-0.4199,0.01c0.0039-0.1812-0.1001-0.46,0.168-0.4712
		C-4953.124,3228.9109-4953.1191,3229.187-4953.103,3229.3831z"/>
	<path class="st4" d="M-4997.7461,3229.6121c-0.146-0.001-0.292-0.0032-0.438-0.0042c0.0352-0.208,0.02-0.5088,0.312-0.47
		C-4997.6821,3229.1641-4997.7412,3229.436-4997.7461,3229.6121z"/>
	<path class="st2" d="M-5010.249,3310.7141c2.2349,0.011,3.8838,1.6409,3.8862,3.8408c0.002,2.1621-1.7451,3.875-3.9102,3.842
		c-2.167-0.033-4.0093-1.8899-3.916-3.9131C-5014.0669,3311.801-5012.0942,3310.5171-5010.249,3310.7141z M-5013.0659,3314.458
		c-0.0581,1.4661,1.292,2.8469,2.8037,2.8689c1.3511,0.019,2.73-1.3689,2.7793-2.7998c0.0518-1.5012-1.1611-2.7952-2.6563-2.8342
		C-5011.605,3311.6541-5013.0078,3312.979-5013.0659,3314.458z"/>
	<path class="st2" d="M-4952.0288,3322.7261c-2.2231-0.0051-3.9014-1.644-3.915-3.823c-0.0122-1.9851,1.9619-3.968,3.9907-3.8352
		c2.4014,0.1572,3.7441,1.5112,3.8843,3.9031C-4947.9458,3321.0811-4950.105,3322.9851-4952.0288,3322.7261z M-4949.2432,3318.978
		c-0.0107-1.5271-1.3369-2.9189-2.7681-2.908c-1.3887,0.011-2.7388,1.384-2.7466,2.792c-0.0093,1.6729,1.2236,2.9309,2.832,2.8899
		C-4950.374,3321.7129-4949.2319,3320.533-4949.2432,3318.978z"/>
	<path class="st2" d="M-4962.0371,3324.8879c0.019,0.302-0.0898,0.55-0.4199,0.6121c-0.4028,0.075-0.5889-0.1841-0.6621-0.5291
		c-0.2378-1.1331-0.4629-2.27-0.6938-3.405c-0.1831-0.8999-0.374-1.7988-0.5439-2.7009c-0.042-0.2229-0.25-0.5029-0.0371-0.6699
		c0.2168-0.1702,0.4302,0.0808,0.6182,0.2119c1.4751,1.0281,2.9478,2.0591,4.4219,3.0869c0.1641,0.114,0.3291,0.228,0.498,0.3342
		c0.167,0.105,0.3569,0.272,0.5439,0.1609c0.208-0.124,0.0879-0.355,0.0479-0.5449c-0.2319-1.094-0.4619-2.188-0.6968-3.281
		c-0.0513-0.2351-0.1289-0.4741-0.0068-0.7002c0.126-0.2329,0.3569-0.3298,0.6079-0.2859c0.3418,0.0601,0.3887,0.366,0.4458,0.6379
		c0.335,1.603,0.667,3.2061,0.9951,4.8101c0.0957,0.469,0.1787,0.9409,0.2588,1.4131c0.0249,0.1489,0.0869,0.343-0.084,0.4229
		c-0.1641,0.0771-0.2847-0.0889-0.4141-0.178c-1.6758-1.158-3.353-2.3169-5.0327-3.469c-0.1592-0.1089-0.3472-0.3201-0.5259-0.2219
		c-0.2783,0.1519-0.0732,0.4209-0.0322,0.636C-4962.5171,3322.4441-4962.2769,3323.6589-4962.0371,3324.8879z"/>
	<path class="st2" d="M-4935.8032,3313.6431c-0.0176,2.144-1.7905,3.9448-3.8647,3.925c-2.2393-0.0222-3.8252-1.6311-3.8169-3.874
		c0.0078-2.187,1.7168-3.989,3.856-3.866C-4937.4102,3309.9561-4935.98,3311.2781-4935.8032,3313.6431z M-4939.689,3316.4729
		c1.52-0.031,2.9512-1.3948,2.8408-2.8088c-0.1147-1.481-1.417-2.78-2.812-2.719c-1.6597,0.073-2.9116,1.2778-2.8506,2.8789
		C-4942.4551,3315.324-4941.1982,3316.5029-4939.689,3316.4729z"/>
	<path class="st2" d="M-4936.0459,3308.948c-0.1743-1.895,1.1841-3.4819,3.4331-3.9351c0.3208-0.0649,0.6367-0.033,0.9307,0.123
		c0.2241,0.1189,0.3882,0.283,0.3633,0.561c-0.0264,0.29-0.23,0.4041-0.4863,0.4309c-0.2368,0.0251-0.478,0.0171-0.7168,0.032
		c-1.439,0.0901-2.4341,1.0762-2.5449,2.519c-0.1079,1.3992,0.874,2.7219,2.2231,2.9929c1.6279,0.3281,2.7446-0.325,3.127-1.8069
		c0.106-0.4099,0.167-0.813-0.209-1.0911c-0.3262-0.241-0.5913,0.063-0.8652,0.2021c-0.1411,0.072-0.2759,0.1648-0.4248,0.2129
		c-0.207,0.0669-0.4043,0.002-0.5322-0.1709c-0.1338-0.1802-0.125-0.3992,0.041-0.542c0.603-0.521,1.21-1.0452,1.9238-1.406
		c0.3433-0.1741,0.4873,0.146,0.6284,0.386c0.7529,1.281,0.812,2.572-0.0034,3.8418c-0.7246,1.1301-2.438,1.7781-3.7959,1.5161
		C-4934.7739,3312.4619-4936.271,3310.5669-4936.0459,3308.948z"/>
	<path class="st2" d="M-5013.627,3309.386c-0.0288,1.0281-0.8843,1.936-1.8818,2.053c-1.062,0.124-1.043,0.123-0.9653,1.1799
		c0.0474,0.635,0.0273,1.2751,0.0313,1.9131c0.0039,0.6011-0.27,0.553-0.667,0.2981c-0.3779-0.2422-0.519-0.584-0.52-1.01
		c-0.002-0.678,0.0039-1.3562-0.0151-2.0342c-0.0068-0.2629,0.126-0.6399-0.1699-0.7559c-0.3359-0.1321-0.4282,0.269-0.5811,0.478
		c-0.2822,0.386-0.541,0.7888-0.811,1.1838c-0.2388,0.3501-0.5288,0.4832-0.9019,0.1931c-0.3452-0.269-0.2012-0.5461-0.0142-0.834
		c1.0889-1.6689,2.1802-3.3381,3.2549-5.0161c0.335-0.522,0.7002-0.561,1.1934-0.22c0.5259,0.364,1.0376,0.7371,1.4707,1.2151
		C-5013.8389,3308.4351-5013.6821,3308.915-5013.627,3309.386z M-5014.8018,3309.2871c-0.0112-0.4912-0.6011-1.144-1.0313-1.1411
		c-0.3281,0.002-1.1812,1.0559-1.207,1.4919c-0.0259,0.4211,0.54,0.8262,1.1211,0.802
		C-5015.3052,3310.416-5014.7891,3309.884-5014.8018,3309.2871z"/>
	<path class="st2" d="M-4965.5679,3324.894c-0.0552,0.3301,0.1528,0.9958-0.5142,1.043c-0.6021,0.042-0.501-0.635-0.585-1.0139
		c-0.1118-0.5-0.0801-1.032-0.106-1.55c-0.0229-0.4631-0.1719-0.7571-0.7271-0.7021c-0.5562,0.0552-1.1201,0.02-1.6772,0.0681
		c-0.7656,0.0659-1.0039,0.335-0.8789,1.094c0.104,0.634,0.2241,1.259,0.1499,1.9031c-0.0288,0.252-0.1206,0.4709-0.4146,0.5049
		c-0.2881,0.033-0.4502-0.144-0.5322-0.385c-0.0889-0.2629-0.1812-0.5359-0.2021-0.8091c-0.127-1.6699-0.2339-3.3398-0.4761-4.9988
		c-0.0278-0.1921-0.0078-0.405,0.0474-0.5911c0.0889-0.2971,0.3198-0.46,0.6357-0.4351c0.2861,0.0229,0.4111,0.2429,0.436,0.4919
		c0.04,0.397,0.0303,0.7981,0.061,1.196c0.0669,0.8611,0.2412,1.01,1.1143,1.0471c0.5288,0.022,1.0249-0.1511,1.5386-0.2212
		c0.5732-0.0779,0.7261-0.429,0.665-0.9309c-0.0479-0.396-0.1499-0.7859-0.1826-1.1819c-0.0332-0.395,0.0879-0.7341,0.5688-0.74
		c0.3989-0.0061,0.5542,0.2588,0.5859,0.6179C-4965.8979,3321.127-4965.7378,3322.9531-4965.5679,3324.894z"/>
	<path class="st2" d="M-4996.8149,3316.6909c-0.0991,0.334-0.2549,0.748-0.3423,1.176c-0.1187,0.5901,0.0972,0.7729,0.6401,0.512
		c0.6812-0.3269,1.3262-0.73,1.9893-1.095c0.4297-0.2371,0.876-0.4031,1.3677-0.197c0.1431,0.0601,0.356,0.1201,0.3921,0.228
		c0.0562,0.1711-0.1602,0.24-0.2939,0.314c-0.7661,0.427-1.5278,0.8601-2.3008,1.2729c-1.2041,0.6431-1.2251,0.719-0.6743,1.9131
		c0.417,0.9041,0.8071,1.822,1.187,2.7429c0.083,0.2012,0.2632,0.4712,0.0093,0.6531c-0.2124,0.1521-0.458-0.012-0.6772-0.0911
		c-0.4219-0.1528-0.562-0.5339-0.7168-0.905c-0.353-0.8459-0.707-1.6909-1.0762-2.5298c-0.0591-0.135-0.188-0.3162-0.3052-0.332
		c-0.2417-0.0332-0.3018,0.209-0.3589,0.395c-0.187,0.6099-0.3511,1.2268-0.5508,1.832c-0.103,0.3108-0.2813,0.627-0.6831,0.501
		c-0.377-0.1182-0.416-0.447-0.3223-0.7881c0.5435-1.959,1.0854-3.918,1.6421-5.873c0.0894-0.313,0.2539-0.624,0.6782-0.478
		C-4996.9121,3316.0439-4996.7861,3316.2849-4996.8149,3316.6909z"/>
	<path class="st2" d="M-5029.8838,3303.7771c-0.0273-0.5132,0.0879-1.0452,0.4497-1.5132c0.9292-1.2019,1.9839-2.2878,3.0742-3.3408
		c0.1128-0.1091,0.2417-0.2102,0.3799-0.2832c0.2051-0.1079,0.3848-0.0149,0.54,0.1272c0.1641,0.1509,0.2168,0.3308,0.1079,0.5349
		c-0.2271,0.426-0.5361,0.7869-0.8672,1.137c-0.7646,0.811-1.6558,1.5071-2.2866,2.4409c-0.5571,0.8262-0.5293,1.5542,0.0566,2.1731
		c0.5591,0.5911,1.353,0.634,2.1714,0.1221c0.3789-0.2371,0.668-0.5581,0.9287-0.918c0.6592-0.9111,1.5342-1.6191,2.3013-2.4302
		c0.1958-0.208,0.4219-0.4099,0.7188-0.167c0.3032,0.248,0.2681,0.5242,0.0723,0.844c-0.3813,0.6221-0.9063,1.1111-1.4111,1.6201
		c-0.562,0.5669-1.1392,1.1189-1.6851,1.7c-0.855,0.9089-1.8628,1.001-2.96,0.574
		C-5029.3408,3305.991-5029.8931,3305.0769-5029.8838,3303.7771z"/>
	<path class="st2" d="M-4923.0239,3301.2319c-0.1152,0.4451-0.5,0.6951-0.8169,0.981c-1.1362,1.0242-1.1172,0.989-0.0454,2.0852
		c0.5063,0.5178,0.8711,0.5959,1.3521,0.012c0.3032-0.3672,0.6714-0.6831,1.0273-1.002c0.2437-0.218,0.5049-0.197,0.7437,0.0378
		c0.2354,0.23,0.3052,0.5129,0.064,0.738c-0.7856,0.73-1.5889,1.4451-2.4116,2.1321c-0.2124,0.177-0.4473,0.0068-0.6113-0.196
		c-1.2329-1.5239-2.73-2.7949-4.0659-4.22c-0.5981-0.6379-0.6211-0.845,0.021-1.3459c0.6309-0.4932,1.2192-1.0261,1.7861-1.5872
		c0.2891-0.2859,0.6079-0.426,0.9189-0.052c0.2959,0.3569-0.0229,0.5791-0.2358,0.803c-0.2749,0.2891-0.5732,0.5571-0.8442,0.8491
		c-0.5327,0.575-0.4028,1.2769,0.2783,1.6431c0.2788,0.1499,0.459-0.0042,0.6309-0.166c0.4058-0.3831,0.7959-0.7842,1.2007-1.1692
		c0.1743-0.166,0.3784-0.3379,0.6274-0.1509C-4923.2158,3300.7681-4923.0688,3300.9619-4923.0239,3301.2319z"/>
	<path class="st2" d="M-4981.021,3320.084c-0.2041-0.0239-0.4419-0.0449-0.6782-0.0791c-0.939-0.136-1.2407,0.0552-1.3188,0.8372
		c-0.0659,0.6628,0.2021,0.8669,1.1899,0.916c0.3569,0.0181,0.7212,0.01,1.0703,0.0769c0.3569,0.0691,0.5498,0.333,0.4819,0.7051
		c-0.063,0.3459-0.3511,0.4119-0.645,0.3789c-0.355-0.0391-0.7041-0.144-1.0591-0.1738c-0.938-0.0781-1.2412,0.1829-1.3262,1.0989
		c-0.0967,1.0461,0.1382,1.3911,1.0552,1.491c0.395,0.043,0.7969,0.022,1.1938,0.051c0.3691,0.0271,0.5972,0.2219,0.5742,0.616
		c-0.0259,0.437-0.3081,0.521-0.6709,0.4299c-0.7461-0.1868-1.5132-0.0408-2.2622-0.1548c-0.9502-0.145-1.1978-0.427-1.0728-1.354
		c0.2339-1.7351,0.3398-3.4802,0.4517-5.2241c0.0342-0.53,0.252-0.814,0.8003-0.8169c0.916-0.0051,1.834-0.0562,2.73,0.2058
		c0.252,0.0742,0.6099,0.0122,0.5576,0.446c-0.0376,0.321-0.2456,0.4871-0.5605,0.519
		C-4980.667,3320.071-4980.8262,3320.073-4981.021,3320.084z"/>
	<path class="st2" d="M-4919.5322,3300.575c0.5562,0.115,1.0601,0.0361,1.3423-0.509c0.2319-0.45,0.2339-0.9419-0.0698-1.3669
		c-0.3882-0.542-0.9634-0.533-1.519-0.3679c-0.5332,0.158-1.0264,0.469-1.5654,0.584c-1.188,0.2539-2.2319-0.3682-2.4297-1.3669
		c-0.228-1.1511,0.605-2.4192,1.7471-2.6172c0.332-0.0579,0.7847-0.198,0.9268,0.2551c0.1133,0.3579-0.2158,0.5591-0.5308,0.6829
		c-0.375,0.1482-0.7383,0.3101-0.9492,0.688c-0.1689,0.301-0.2178,0.603-0.0127,0.9031c0.2207,0.324,0.5259,0.522,0.9189,0.3911
		c0.5298-0.177,1.0376-0.415,1.563-0.6082c1.5146-0.5549,2.749,0.0691,3.1699,1.593c0.335,1.21-0.5669,2.5911-1.8809,2.9011
		c-0.3232,0.0759-0.6362,0.085-0.9414-0.0381c-0.3447-0.1399-0.856-0.1418-0.7529-0.7249
		C-4920.457,3300.6411-4920.1572,3300.5381-4919.5322,3300.575z"/>
	<path class="st2" d="M-5032.313,3301.8269c-1.689-0.0288-2.895-2.0498-2.0688-3.4629c0.1489-0.2551,0.293-0.502,0.645-0.343
		c0.2788,0.127,0.4478,0.335,0.3696,0.666c-0.0459,0.1941-0.124,0.3831-0.1499,0.5791c-0.0908,0.7068,0.437,1.3938,1.0981,1.4478
		c0.7598,0.0632,1.3589-0.5308,1.3169-1.3508c-0.0161-0.313-0.1157-0.625-0.2012-0.9312c-0.1069-0.3838-0.2368-0.7588-0.2578-1.1648
		c-0.0698-1.354,0.5981-2.1501,1.8149-2.1421c1.1899,0.0081,2.3398,1.2151,2.2393,2.354c-0.0264,0.293-0.0903,0.585-0.4634,0.574
		c-0.2817-0.0081-0.5889-0.073-0.6006-0.4451c-0.0161-0.4768-0.2153-0.845-0.5864-1.125c-0.3057-0.231-0.6348-0.3359-0.9976-0.116
		c-0.3564,0.2161-0.4731,0.5442-0.3701,0.926c0.146,0.5391,0.3491,1.062,0.4961,1.6011
		C-5029.626,3300.376-5030.7822,3301.853-5032.313,3301.8269z"/>
	<path class="st2" d="M-4978.7598,3322.8311c-0.2344-2.667,2.8086-4.4761,4.9429-3.6821c0.2261,0.084,0.4609,0.147,0.6211,0.3359
		c0.2246,0.2681,0.2876,0.6221,0.1348,0.8982c-0.2158,0.3899-0.4751,0.01-0.6978-0.074c-1.2251-0.4602-2.5601-0.2061-3.3154,0.6479
		c-0.7217,0.8169-0.856,2.1619-0.3237,3.2559c0.6201,1.2742,1.9868,1.74,3.4878,1.2441c0.2612-0.0859,0.6069-0.688,0.856-0.0901
		c0.2031,0.489-0.043,0.929-0.6006,1.116c-1.3843,0.4631-2.667,0.3459-3.7954-0.655
		C-4978.3691,3325.0161-4978.8921,3324.03-4978.7598,3322.8311z"/>
	<path class="st2" d="M-5018.3569,3306.207c-0.0142,1.675-1.5562,2.6431-3.1021,1.939c-0.2158-0.0979-0.4229-0.228-0.6089-0.375
		c-0.4224-0.332-0.689-0.198-0.96,0.218c-0.3032,0.4651-0.668,0.8899-1.0161,1.324c-0.2368,0.2949-0.5039,0.3369-0.8271,0.095
		c-0.353-0.2639-0.2749-0.542-0.0591-0.8201c1.2451-1.6008,2.4951-3.1968,3.7461-4.792c0.1709-0.218,0.3291-0.4419,0.6802-0.366
		C-5019.7222,3303.5979-5018.3501,3305.354-5018.3569,3306.207z M-5019.3652,3306.113c-0.021-0.415-0.7046-1.208-1.0386-1.2041
		c-0.271,0.0032-1.3682,1.2961-1.353,1.595c0.0137,0.2861,0.959,0.823,1.3799,0.7842
		C-5019.8882,3307.2429-5019.3398,3306.606-5019.3652,3306.113z"/>
	<path class="st2" d="M-5002,3321.0161c0.248,0.0549,0.6992-0.332,0.7559,0.178c0.0542,0.49-0.2939,0.7568-0.8301,0.8098
		c-1.8218,0.177-3.6929-1.386-3.8057-3.2139c-0.1392-2.2461,0.936-3.853,2.9199-4.356c1.272-0.323,2.3579,0.1418,3.377,0.835
		c0.2769,0.188,0.4219,0.4819,0.3818,0.8311c-0.0278,0.24-0.0728,0.5188-0.3237,0.5969c-0.2231,0.0701-0.3042-0.2009-0.4443-0.332
		c-1.7075-1.606-3.6567-1.3181-4.6328,0.6809C-5005.5508,3318.9871-5004.1821,3321.092-5002,3321.0161z"/>
	<path class="st2" d="M-4987.96,3319.8c0.022-0.3281-0.1709-0.5471-0.5303-0.627c-0.1938-0.0432-0.397-0.05-0.5908-0.094
		c-0.3247-0.0752-0.4688-0.2871-0.4028-0.6172c0.0527-0.2678,0.2329-0.447,0.5029-0.4089c1.1841,0.1641,2.377,0.2871,3.5317,0.615
		c0.2563,0.073,0.415,0.2561,0.3584,0.5352c-0.0562,0.2788-0.2954,0.333-0.54,0.3838c-1.2573,0.2612-1.2661,0.2632-1.4741,1.5142
		c-0.189,1.1399-0.3521,2.2849-0.5249,3.428c-0.0303,0.197-0.0273,0.4031-0.082,0.592c-0.0898,0.3069-0.1899,0.658-0.6289,0.551
		c-0.3711-0.0911-0.4961-0.3821-0.4414-0.74c0.1763-1.1421,0.3613-2.2832,0.5444-3.4241
		C-4988.1479,3320.9561-4988.0581,3320.405-4987.96,3319.8z"/>
	<path class="st2" d="M-4942.3999,3318.7959c0.0029,0.2222-0.1021,0.3831-0.2993,0.4741c-0.2896,0.134-0.5879,0.249-0.877,0.384
		c-1.7588,0.823-1.748,0.8201-2.4771-0.9331c-0.6128-1.4739-1.2607-2.9319-1.8779-4.405c-0.125-0.2988-0.4668-0.6628,0.0283-0.928
		c0.5601-0.2988,0.7939,0.1091,0.9819,0.5352c0.564,1.2778,1.1089,2.564,1.686,3.8359c0.5566,1.2271,0.5698,1.2209,1.8359,0.718
		C-4942.7813,3318.2319-4942.4102,3318.3501-4942.3999,3318.7959z"/>
	<path class="st2" d="M-4929.8472,3302.4341c0.3271,0.0029,0.5142,0.2229,0.6909,0.4319c1.2554,1.4832,2.5,2.9751,3.7563,4.458
		c0.2549,0.301,0.4351,0.594,0.0737,0.925c-0.4497,0.4109-0.6738,0.0569-0.9458-0.2661c-1.1499-1.366-2.3223-2.7119-3.4751-4.075
		c-0.2041-0.241-0.3979-0.5059-0.5259-0.791C-4930.4531,3302.7161-4930.1611,3302.55-4929.8472,3302.4341z"/>
	<path class="st5" d="M-4937.2529,3220.729c-0.0859,1.0549-0.1621,2.1299-0.269,3.2031c-0.0269,0.2729-0.1128,0.554-0.2368,0.7988
		c-0.3301,0.6531-0.8975,0.6611-1.2632,0.0129c-0.2378-0.4209-0.3472-0.8999-0.3501-1.3828
		c-0.0117-1.7581-0.0171-3.5171,0.0039-5.2751c0.0039-0.353,0.1094-0.71,0.2061-1.054c0.1123-0.395,0.2969-0.7849,0.771-0.8049
		c0.5093-0.022,0.6323,0.4099,0.7573,0.792c0.0615,0.189,0.1118,0.386,0.1289,0.583
		C-4937.415,3218.637-4937.3369,3219.6709-4937.2529,3220.729z"/>
	<path class="st5" d="M-4931.0151,3220.7471c-0.082,1.0339-0.1548,2.0698-0.2539,3.103c-0.0259,0.2739-0.124,0.5439-0.2139,0.8079
		c-0.0942,0.2751-0.2642,0.5129-0.5742,0.551c-0.3721,0.0459-0.5957-0.2009-0.7437-0.4971c-0.1992-0.396-0.312-0.8259-0.3271-1.269
		c-0.0659-1.8379-0.084-3.6768,0.0142-5.5129c0.021-0.3899,0.1567-0.783,0.293-1.1541c0.1128-0.3069,0.3359-0.5649,0.7056-0.5559
		c0.3774,0.01,0.5542,0.291,0.6553,0.6079c0.3447,1.0791,0.248,2.2151,0.4102,3.3181c0.0288,0.196,0.0039,0.3989,0.0039,0.5989
		C-4931.0352,3220.7461-4931.0249,3220.7471-4931.0151,3220.7471z"/>
	<path class="st1" d="M-5013.0659,3314.458c0.0581-1.479,1.4609-2.804,2.9268-2.7651c1.4951,0.0391,2.708,1.3342,2.6563,2.8342
		c-0.0493,1.4309-1.4282,2.8188-2.7793,2.7998C-5011.7739,3317.3049-5013.124,3315.9241-5013.0659,3314.458z"/>
	<path class="st1" d="M-4949.2432,3318.978c0.0112,1.5549-1.1309,2.7349-2.6826,2.7749c-1.6074,0.041-2.8403-1.218-2.832-2.8899
		c0.0068-1.408,1.3579-2.781,2.7466-2.792C-4950.5801,3316.0591-4949.2539,3317.4509-4949.2432,3318.978z"/>
	<path class="st6" d="M-4939.689,3316.4729c-1.5093,0.03-2.7661-1.1489-2.8232-2.6479c-0.0596-1.6008,1.1924-2.8069,2.8511-2.8789
		c1.395-0.061,2.6973,1.238,2.812,2.719C-4936.7378,3315.0781-4938.1689,3316.4419-4939.689,3316.4729z"/>
	<path class="st1" d="M-5014.8018,3309.2871c0.0127,0.5959-0.5034,1.1289-1.1182,1.1528c-0.5811,0.0229-1.146-0.3818-1.1211-0.802
		c0.0269-0.436,0.8789-1.49,1.207-1.4919C-5015.4028,3308.1431-5014.812,3308.7959-5014.8018,3309.2871z"/>
	<path class="st1" d="M-5019.3652,3306.113c0.0254,0.4929-0.5239,1.1299-1.0127,1.1741c-0.4209,0.0388-1.3662-0.498-1.3799-0.7842
		c-0.0151-0.2988,1.083-1.5918,1.353-1.595C-5020.0698,3304.905-5019.3862,3305.698-5019.3652,3306.113z"/>
</g>
</svg>
