<?xml version="1.0" encoding="UTF-8" standalone="no"?>
<!-- Created with Inkscape (http://www.inkscape.org/) -->

<svg
   xmlns:dc="http://purl.org/dc/elements/1.1/"
   xmlns:cc="http://creativecommons.org/ns#"
   xmlns:rdf="http://www.w3.org/1999/02/22-rdf-syntax-ns#"
   xmlns:svg="http://www.w3.org/2000/svg"
   xmlns="http://www.w3.org/2000/svg"
   xmlns:sodipodi="http://sodipodi.sourceforge.net/DTD/sodipodi-0.dtd"
   xmlns:inkscape="http://www.inkscape.org/namespaces/inkscape"
   width="150"
   height="150"
   viewBox="0 0 150 150"
   id="svg2"
   version="1.1"
   inkscape:version="0.91 r13725"
   sodipodi:docname="sextupole.svg">
  <defs
     id="defs4" />
  <sodipodi:namedview
     id="base"
     pagecolor="#ffffff"
     bordercolor="#666666"
     borderopacity="1.0"
     inkscape:pageopacity="0.0"
     inkscape:pageshadow="2"
     inkscape:zoom="3.959798"
     inkscape:cx="101.13838"
     inkscape:cy="97.244427"
     inkscape:document-units="px"
     inkscape:current-layer="layer1"
     showgrid="true"
     units="px"
     inkscape:window-width="1920"
     inkscape:window-height="1056"
     inkscape:window-x="0"
     inkscape:window-y="24"
     inkscape:window-maximized="1">
    <inkscape:grid
       type="xygrid"
       id="grid4136" />
  </sodipodi:namedview>
  <metadata
     id="metadata7">
    <rdf:RDF>
      <cc:Work
         rdf:about="">
        <dc:format>image/svg+xml</dc:format>
        <dc:type
           rdf:resource="http://purl.org/dc/dcmitype/StillImage" />
        <dc:title></dc:title>
      </cc:Work>
    </rdf:RDF>
  </metadata>
  <g
     inkscape:label="Layer 1"
     inkscape:groupmode="layer"
     id="layer1"
     transform="translate(0,-902.36216)">
    <path
       style="fill:#0000a0;fill-opacity:1;fill-rule:evenodd;stroke:#000064;stroke-width:1px;stroke-linecap:butt;stroke-linejoin:miter;stroke-opacity:1"
       d="m 136.22772,1008.1244 c 0,0 -35.78756,-15.12938 -35.64506,-30.84036 0.13853,-15.27309 35.18969,-29.3473 35.18969,-29.3473 l 10.66455,16.78124 c 0,0 -22.29869,4.00708 -22.33902,12.54756 -0.0414,8.75655 22.78165,13.08075 22.78165,13.08075 z"
       id="path4161-0"
       inkscape:connector-curvature="0"
       sodipodi:nodetypes="caccacc" />
    <path
       style="fill:#0000a0;fill-opacity:1;fill-rule:evenodd;stroke:#000064;stroke-width:1px;stroke-linecap:butt;stroke-linejoin:miter;stroke-opacity:1"
       d="m 135.41888,939.69831 c 0,0 -34.26288,19.91949 -47.012104,10.19449 -11.718991,-8.93914 -2.385698,-44.15309 -2.385698,-44.15309 l 20.893802,-0.0447 c 0,0 -11.24289,20.40499 -4.28245,25.47353 6.41423,4.67079 21.12982,-10.9617 21.12982,-10.9617 z"
       id="path4161-0-2"
       inkscape:connector-curvature="0"
       sodipodi:nodetypes="caccacc" />
    <path
       style="fill:#0000a0;fill-opacity:1;fill-rule:evenodd;stroke:#000064;stroke-width:1px;stroke-linecap:butt;stroke-linejoin:miter;stroke-opacity:1"
       d="m 15.005015,939.92484 c 0,0 34.223175,19.86722 47.012106,10.19449 11.737301,-8.87734 2.742839,-44.06381 2.742839,-44.06381 l -20.625946,0.22319 c 0,0 10.550965,20.21147 3.657447,25.1164 -6.465111,4.60011 -21.129816,-10.9617 -21.129816,-10.9617 z"
       id="path4161-0-2-9"
       inkscape:connector-curvature="0"
       sodipodi:nodetypes="caccacc" />
    <path
       style="fill:#0000a0;fill-opacity:1;fill-rule:evenodd;stroke:#000064;stroke-width:1px;stroke-linecap:butt;stroke-linejoin:miter;stroke-opacity:1"
       d="m 14.170619,1015.3469 c 0,0 34.212792,-19.85348 47.012106,-10.1945 11.724622,8.848 2.832124,43.9745 2.832124,43.9745 l -20.893803,-0.2232 c 0,0 10.694347,-20.1084 3.836019,-25.0271 -6.447844,-4.6243 -21.129816,10.9617 -21.129816,10.9617 z"
       id="path4161-0-2-9-2"
       inkscape:connector-curvature="0"
       sodipodi:nodetypes="caccacc" />
    <path
       style="fill:#0000a0;fill-opacity:1;fill-rule:evenodd;stroke:#000064;stroke-width:1px;stroke-linecap:butt;stroke-linejoin:miter;stroke-opacity:1"
       d="m 135.18981,1015.3717 c 0,0 -34.2201,-19.86317 -47.012106,-10.1945 -11.621635,8.7841 -2.742839,43.6174 -2.742839,43.6174 l 21.161655,-0.045 c 0,0 -10.981997,-19.9017 -4.19316,-24.8485 6.41279,-4.6728 21.12982,10.9617 21.12982,10.9617 z"
       id="path4161-0-2-9-2-8"
       inkscape:connector-curvature="0"
       sodipodi:nodetypes="caccacc" />
    <path
       style="fill:#0000a0;fill-opacity:1;fill-rule:evenodd;stroke:#000064;stroke-width:1px;stroke-linecap:butt;stroke-linejoin:miter;stroke-opacity:1"
       d="m 13.09221,1007.3668 c 0,0 35.78756,-15.12939 35.64506,-30.84037 -0.13853,-15.27309 -35.18969,-29.3473 -35.18969,-29.3473 L 2.8830271,963.96037 c 0,0 22.2986929,4.00708 22.3390229,12.54756 0.0414,8.75655 -22.7816529,13.08075 -22.7816529,13.08075 z"
       id="path4161-0-1"
       inkscape:connector-curvature="0"
       sodipodi:nodetypes="caccacc" />
  </g>
</svg>
